Coordinates
version=1
nRows=9
nColumns=36
inDegrees=yes

Units are S.I. units (second, meters, Newtons, ...)
If the header above contains a line with 'inDegrees', this indicates whether rotational values are in degrees (yes) or radians (no).

endheader
time	pelvis_tilt	pelvis_list	pelvis_rotation	pelvis_tx	pelvis_ty	pelvis_tz	hip_flexion_r	hip_adduction_r	hip_rotation_r	knee_angle_r	knee_angle_r_beta	ankle_angle_r	subtalar_angle_r	mtp_angle_r	hip_flexion_l	hip_adduction_l	hip_rotation_l	knee_angle_l	knee_angle_l_beta	ankle_angle_l	subtalar_angle_l	mtp_angle_l	lumbar_extension	lumbar_bending	lumbar_rotation	arm_flex_r	arm_add_r	arm_rot_r	elbow_flex_r	pro_sup_r	arm_flex_l	arm_add_l	arm_rot_l	elbow_flex_l	pro_sup_l
      5.15000000	      4.52878263	      2.36362112	     24.75964948	      0.23219717	      0.98872162	      0.02802310	      0.54356173	      2.39002470	     -6.35832312	     12.73741853	      0.22230989	      7.79239551	    -20.78287889	     -7.49999987	     14.36884389	     -4.72523047	     -6.35502139	     15.07967081	      0.26318991	      3.38770351	    -10.72986625	     -7.49999987	    -13.58079118	     -2.82505500	      6.51672367	      3.22267382	     -6.62408695	     14.34683792	     50.39768723	     74.73190348	      8.55418492	     -4.72406346	     19.86594868	     49.98353880	     82.42941892
      5.15416670	      4.14440641	      2.34315137	     24.88192497	      0.23190116	      0.99168602	      0.02619324	      0.82542031	      2.11331570	     -6.99524454	     12.52607786	      0.21862130	      7.75450507	    -20.83406011	     -7.49999987	     14.69339232	     -4.55384786	     -6.80909760	     15.52037639	      0.27088167	      3.04054806	    -11.54027554	     -7.49999987	    -12.98645979	     -2.91540217	      6.63925844	      2.98513742	     -6.58881230	     14.42722834	     48.47378324	     74.06343757	      8.34672795	     -4.45219494	     19.22293686	     47.31234827	     82.20701753
      5.15833330	      4.15857071	      2.35549115	     24.76190912	      0.23385233	      0.98885804	      0.02651122	      0.70398593	      2.00908948	     -7.26235598	     12.47387455	      0.21771018	      7.66728993	    -21.05731194	     -7.49999987	     14.45437336	     -4.64232118	     -7.27001093	     15.76163417	      0.27509241	      2.82824416	    -12.17774234	     -7.49999987	    -12.90068518	     -2.94934510	      6.70173793	      2.94914916	     -6.59405121	     14.57838340	     46.68631164	     74.33104324	      8.31983248	     -4.30859668	     18.18791573	     44.54245031	     86.15806375
      5.16250000	      3.81578776	      2.29543078	     24.81476916	      0.22773668	      0.99199234	      0.03405054	      1.18330686	      2.00287535	     -7.54875814	     12.29324700	      0.21455764	      7.62740108	    -20.97114191	     -7.49999987	     14.92337560	     -4.77655055	     -7.46907249	     16.22527132	      0.28318441	      2.27571683	    -12.83381992	     -7.49999987	    -12.62349390	     -3.12868606	      6.92936616	      2.74122399	     -6.51684327	     14.43212586	     45.23605079	     74.32950601	      8.21858056	     -4.21942154	     17.39931072	     42.12015600	     86.17475613
      5.16666670	      3.68060261	      2.32058945	     25.02641958	      0.22591828	      0.99255297	      0.03492262	      1.35309912	      2.04374970	     -7.89575217	     12.04072033	      0.21015021	      7.65486684	    -20.77529593	     -7.49999987	     15.18880986	     -4.88221392	     -7.63608660	     16.72702941	      0.29194174	      1.71778717	    -13.22194919	     -7.49999987	    -12.67739378	     -3.33688597	      6.88145983	      2.76301609	     -6.37130353	     14.39080662	     43.85320230	     73.94306461	      8.24528582	     -4.38228596	     16.96397960	     39.90851799	     85.57226214
      5.17083330	      3.30610924	      2.19786162	     25.33183040	      0.22441667	      0.99784747	      0.03572128	      1.70467772	      2.13022151	     -8.19540539	     11.58494556	      0.20219544	      7.52426162	    -20.43988529	     -7.49999987	     15.60973543	     -4.94535384	     -7.79411677	     16.83518454	      0.29382940	      1.01624899	    -13.31627399	     -7.49999987	    -12.24798724	     -3.45862210	      6.86657217	      2.66170378	     -6.21201852	     14.35931524	     42.24737460	     74.09560213	      8.44061003	     -4.39670487	     16.58810405	     36.94101994	     85.83446105
      5.17500000	      3.18590859	      2.11346363	     25.74587250	      0.22092761	      0.99719111	      0.03787470	      1.80988310	      2.30811438	     -8.59307540	     11.16173518	      0.19480903	      7.09955307	    -20.32682762	     -7.49999987	     15.78012906	     -5.00975036	     -7.89420883	     16.90575840	      0.29506115	      0.67718270	    -12.91172277	     -7.49999987	    -12.28229282	     -3.44384543	      6.77015535	      2.62772100	     -6.13033645	     14.28913144	     40.99143218	     74.27104105	      8.62929825	     -4.48526074	     16.40558748	     34.54934045	     86.11182167
      5.17916670	      2.88828533	      1.95560109	     26.05167522	      0.22050262	      0.99192713	      0.03448023	      2.21033400	      2.34980069	     -8.72535494	     11.01497063	      0.19224750	      6.26846384	    -21.21359687	     -7.49999987	     16.14581835	     -5.05051287	     -8.10732637	     17.23934596	      0.30088335	      0.22184137	    -13.17822738	     -7.49999987	    -12.01010009	     -3.43605410	      6.68075188	      2.43761758	     -6.02134353	     14.03346432	     39.64716640	     74.51961450	      8.58108051	     -4.57076505	     15.72657510	     32.65072317	     86.38634452
      5.18333330	      3.00759774	      2.01999719	     26.75670051	      0.21237379	      0.99626166	      0.03795802	      2.16514094	      2.31619085	     -9.44388811	     10.79989550	      0.18849374	      6.34034986	    -20.87245249	     -7.49999987	     16.26315132	     -4.93964973	     -8.03855679	     17.67441306	      0.30847670	      0.31345088	    -12.59052071	     -7.49999987	    -12.51477165	     -3.40537916	      6.34411567	      2.55998857	     -6.02038516	     13.88830633	     38.61250824	     74.76630596	      9.19118955	     -4.58840960	     15.54085466	     30.31887446	     86.63962044
